<?xml version="1.0" encoding="utf-8"?>
<svg viewBox="0 0 500 500" xmlns="http://www.w3.org/2000/svg">
  <g style="" transform="matrix(6.4503560066223145, 0, 0, 6.4503560066223145, -275.18426513671875, -670.6300659179686)">
    <path d="M 90.271 125.134 L 90.271 120.564 C 92.507 121.111 94.147 121.857 95.886 122.804 L 95.886 127.074 C 94.148 126.279 92.259 125.583 90.271 125.134 Z M 86.99 148.14 L 87.289 138.8 C 87.289 138.203 87.735 137.757 88.283 137.757 C 88.881 137.757 89.275 138.204 89.275 138.8 L 89.626 148.14 L 86.99 148.14 Z M 88.283 165.98 C 85.054 165.98 82.816 165.036 80.232 163.694 C 77.947 162.505 75.711 161.756 72.778 161.756 C 70.047 161.756 66.767 162.451 63.239 164.641 C 66.171 160.267 70.047 158.974 73.673 158.974 C 77.549 158.974 80.58 160.166 83.314 161.56 C 85.847 162.848 87.835 163.495 90.619 163.495 C 92.954 163.495 95.537 162.849 97.972 160.814 C 94.942 164.788 91.414 165.98 88.283 165.98 Z" fill="#00557e" fill-rule="evenodd" clip-rule="evenodd"/>
    <path d="M 90.271 126.129 C 89.078 125.83 87.787 125.632 86.495 125.484 L 86.495 119.77 C 85.063 119.568 83.618 119.468 82.172 119.471 C 80.779 119.471 79.388 119.572 78.048 119.721 L 78.048 125.135 C 76.756 125.286 75.512 125.535 74.32 125.831 L 74.32 120.467 C 72.223 121.048 70.204 121.882 68.308 122.951 L 68.308 134.082 L 70.841 136.516 L 70.096 149.035 L 68.059 151.074 L 68.059 158.328 L 68.755 159.074 C 70.444 158.182 72.58 157.435 75.164 157.435 C 77.648 157.435 80.531 158.128 83.761 159.921 L 83.761 150.679 L 82.42 148.986 L 82.42 136.167 L 85.054 132.092 L 83.959 136.016 C 84.718 135.917 85.482 135.868 86.246 135.87 C 88.829 135.87 91.213 136.315 93.252 137.113 L 95.885 134.678 L 95.885 128.07 C 94.148 127.273 92.259 126.626 90.271 126.129 Z M 74.468 148.14 L 74.767 138.8 C 74.767 138.203 75.213 137.757 75.762 137.757 C 76.311 137.757 76.756 138.204 76.756 138.8 L 77.104 148.14 L 74.468 148.14 Z" fill="#00557e" fill-rule="evenodd" clip-rule="evenodd"/>
  </g>
</svg>