<?xml version="1.0" standalone="no"?>
<!DOCTYPE svg PUBLIC "-//W3C//DTD SVG 20010904//EN"
 "http://www.w3.org/TR/2001/REC-SVG-20010904/DTD/svg10.dtd">
<svg version="1.0" xmlns="http://www.w3.org/2000/svg"
 width="1998.000000pt" height="1998.000000pt" viewBox="0 0 1998.000000 1998.000000"
 preserveAspectRatio="xMidYMid meet">

<g transform="translate(0.000000,1998.000000) scale(0.100000,-0.100000)"
fill="#000000" stroke="none">
<path d="M0 9990 l0 -9990 9990 0 9990 0 0 9990 0 9990 -9990 0 -9990 0 0
-9990z m10185 4198 c75 -19 173 -78 228 -138 49 -54 250 -385 296 -491 77
-173 29 -404 -113 -544 -195 -192 -509 -192 -702 1 -56 56 -283 437 -314 528
-82 235 30 503 253 611 111 53 230 64 352 33z m1126 -2062 c163 -38 246 -144
656 -836 959 -1619 2610 -4477 2716 -4699 183 -387 103 -681 -213 -787 -52
-18 -121 -19 -1330 -22 -918 -2 -1292 0 -1335 8 -113 21 -221 90 -294 184 -22
28 -103 164 -181 301 -79 138 -277 479 -442 759 -165 280 -454 779 -643 1110
-612 1073 -1336 2330 -1361 2364 -31 40 -79 65 -109 58 -51 -13 -124 -124
-450 -691 -76 -132 -420 -724 -765 -1315 -647 -1110 -933 -1613 -957 -1683
-20 -56 -10 -85 35 -105 34 -16 154 -17 1442 -23 1294 -5 1410 -7 1464 -23
127 -37 241 -113 313 -208 37 -49 383 -687 383 -707 0 -4 -35 -12 -77 -16
-105 -10 -4492 -22 -4568 -13 -80 10 -193 67 -253 127 -89 89 -142 223 -142
356 0 92 19 158 71 252 220 403 1581 2771 2538 4418 638 1097 623 1074 755
1139 122 60 263 71 392 32 72 -22 166 -88 207 -144 40 -54 217 -362 652 -1132
583 -1032 627 -1108 1495 -2585 300 -511 601 -1027 669 -1146 67 -119 135
-232 151 -251 15 -18 52 -47 81 -63 l54 -30 515 -8 c283 -5 530 -5 549 -2 18
4 44 17 58 31 45 45 93 -49 -560 1089 -607 1059 -908 1581 -1312 2275 -814
1399 -793 1356 -783 1557 3 76 9 100 40 164 43 91 85 141 161 190 117 76 258
104 378 75z"/>
</g>
</svg>
